<svg id="svg" version="1.1" xmlns="http://www.w3.org/2000/svg" xmlns:xlink="http://www.w3.org/1999/xlink" width="400" height="138.69346733668343" viewBox="0, 0, 400,138.69346733668343"><g id="svgg"><path id="path0" d="M281.917 38.173 C 279.597 38.409,275.291 39.441,275.138 39.798 C 275.108 39.869,274.422 40.224,273.614 40.588 C 272.805 40.952,271.980 41.403,271.780 41.590 C 271.580 41.777,271.192 42.071,270.917 42.243 C 269.507 43.126,266.959 45.853,266.106 47.390 C 265.844 47.863,265.507 48.438,265.359 48.667 C 264.521 49.960,263.689 52.848,263.546 54.958 C 263.495 55.715,263.389 56.333,263.310 56.333 C 263.231 56.333,263.167 56.671,263.167 57.083 C 263.167 57.496,263.242 57.833,263.333 57.833 C 263.427 57.833,263.500 58.298,263.500 58.895 C 263.500 60.605,264.132 63.737,264.672 64.706 C 264.761 64.865,264.833 65.079,264.833 65.182 C 264.833 65.285,265.021 65.591,265.250 65.864 C 265.479 66.136,265.667 66.458,265.667 66.579 C 265.667 67.412,269.270 71.104,270.833 71.874 C 271.063 71.987,271.325 72.164,271.417 72.267 C 271.698 72.585,274.358 73.833,274.754 73.833 C 274.889 73.833,275.000 73.903,275.000 73.989 C 275.000 74.074,275.169 74.191,275.375 74.249 C 275.581 74.307,275.900 74.421,276.083 74.503 C 276.267 74.585,277.317 74.923,278.417 75.255 C 279.517 75.586,280.645 75.961,280.924 76.087 C 281.203 76.213,281.803 76.399,282.258 76.499 C 282.712 76.599,283.308 76.751,283.583 76.837 C 283.858 76.923,284.646 77.159,285.333 77.361 C 286.021 77.564,286.622 77.785,286.668 77.852 C 286.715 77.918,287.165 78.134,287.668 78.331 C 289.003 78.853,290.235 79.579,290.883 80.227 C 291.195 80.540,291.598 80.874,291.779 80.971 C 293.032 81.641,293.732 85.513,293.090 88.212 C 292.201 91.945,289.343 94.247,285.167 94.593 C 284.571 94.642,283.766 94.763,283.377 94.862 C 282.881 94.989,282.534 94.990,282.210 94.867 C 281.957 94.771,281.150 94.652,280.417 94.603 C 278.872 94.499,276.298 93.740,274.874 92.969 C 274.347 92.684,273.579 92.268,273.167 92.045 C 272.754 91.822,272.140 91.421,271.801 91.153 C 271.463 90.886,271.133 90.667,271.067 90.667 C 271.002 90.667,270.716 90.490,270.432 90.275 C 270.149 90.059,269.654 89.749,269.333 89.585 C 269.012 89.421,268.696 89.204,268.631 89.102 C 268.425 88.780,266.110 88.867,265.768 89.208 C 265.607 89.369,265.415 89.500,265.341 89.500 C 265.079 89.500,264.160 90.575,263.818 91.283 C 263.627 91.677,263.413 92.000,263.342 92.000 C 263.272 92.000,263.027 92.356,262.798 92.792 C 262.569 93.227,262.206 93.921,261.990 94.333 C 261.774 94.746,261.511 95.158,261.404 95.250 C 261.298 95.342,261.074 95.657,260.907 95.951 L 260.603 96.486 261.105 96.951 C 262.824 98.545,265.106 100.321,265.460 100.340 C 265.528 100.344,265.843 100.569,266.160 100.840 C 266.478 101.111,266.815 101.334,266.910 101.335 C 267.006 101.337,267.525 101.562,268.065 101.835 C 268.605 102.109,269.149 102.333,269.273 102.333 C 269.398 102.333,269.500 102.397,269.500 102.475 C 269.500 102.790,274.193 104.333,275.151 104.333 C 275.343 104.333,275.500 104.396,275.500 104.473 C 275.500 104.644,277.227 104.960,279.250 105.160 C 282.251 105.455,289.002 105.023,289.328 104.514 C 289.377 104.438,289.679 104.319,290.000 104.250 C 291.524 103.921,294.365 102.826,294.787 102.403 C 294.919 102.272,295.440 101.962,295.945 101.714 C 296.450 101.467,296.999 101.093,297.164 100.882 C 297.329 100.672,297.554 100.500,297.663 100.500 C 297.940 100.500,301.333 97.047,301.333 96.765 C 301.333 96.639,301.434 96.497,301.557 96.450 C 301.680 96.403,302.104 95.739,302.500 94.974 C 302.896 94.209,303.268 93.546,303.328 93.500 C 303.387 93.454,303.535 93.170,303.657 92.870 C 303.877 92.325,304.497 92.470,304.501 93.067 C 304.502 93.168,304.874 93.625,305.328 94.083 C 305.781 94.542,306.156 94.985,306.160 95.068 C 306.170 95.295,308.825 97.860,309.541 98.336 C 309.884 98.564,310.165 98.831,310.166 98.930 C 310.166 99.029,310.373 99.217,310.625 99.347 C 310.877 99.477,311.394 99.790,311.774 100.042 C 312.154 100.294,312.521 100.500,312.589 100.500 C 312.657 100.500,312.797 100.608,312.898 100.741 C 313.511 101.538,319.567 103.994,321.625 104.280 C 322.015 104.334,322.333 104.433,322.333 104.500 C 322.333 104.618,322.750 104.697,325.000 105.006 C 328.142 105.437,333.566 105.350,336.750 104.816 C 338.005 104.606,338.048 104.596,338.250 104.472 C 338.342 104.416,338.867 104.278,339.417 104.166 C 341.076 103.826,344.021 102.826,344.333 102.496 C 344.379 102.447,345.067 102.092,345.861 101.706 C 346.656 101.320,347.414 100.895,347.547 100.763 C 347.680 100.630,348.140 100.298,348.570 100.026 C 349.382 99.510,351.043 98.096,352.271 96.873 L 352.984 96.163 353.325 96.530 C 353.513 96.731,353.667 96.955,353.667 97.027 C 353.667 97.099,353.873 97.266,354.125 97.397 C 354.377 97.528,354.905 97.934,355.298 98.298 C 356.139 99.078,357.894 100.333,358.143 100.333 C 358.239 100.333,358.377 100.440,358.450 100.570 C 358.836 101.253,363.643 103.358,366.301 104.007 C 367.098 104.201,367.900 104.426,368.083 104.507 C 369.795 105.262,378.790 105.547,381.750 104.941 C 381.933 104.903,382.493 104.817,382.993 104.749 C 383.494 104.681,384.019 104.565,384.160 104.490 C 384.301 104.415,385.057 104.200,385.840 104.010 C 388.441 103.381,392.636 101.493,393.771 100.441 C 394.033 100.198,394.334 100.000,394.441 100.000 C 394.548 100.000,394.983 99.662,395.408 99.250 C 395.832 98.837,396.233 98.499,396.298 98.498 C 396.623 98.493,399.667 95.236,399.667 94.893 C 399.667 94.746,399.225 94.167,398.686 93.605 C 398.147 93.043,397.403 92.246,397.033 91.833 C 394.491 89.002,394.062 88.667,392.975 88.667 C 392.200 88.667,391.333 88.934,391.333 89.173 C 391.333 89.239,390.923 89.603,390.422 89.982 C 389.920 90.360,389.375 90.815,389.210 90.992 C 388.723 91.514,385.104 93.285,383.780 93.648 C 380.075 94.664,372.362 94.586,370.354 93.511 C 370.171 93.413,369.872 93.333,369.690 93.333 C 369.507 93.333,369.255 93.240,369.130 93.125 C 368.825 92.844,368.208 92.500,368.011 92.500 C 367.804 92.500,365.801 91.348,365.583 91.104 C 365.492 91.001,365.117 90.696,364.750 90.426 C 363.236 89.313,360.333 85.853,360.333 85.162 C 360.333 85.073,360.272 85.000,360.198 85.000 C 360.034 85.000,359.691 84.299,359.092 82.742 C 358.847 82.105,358.505 81.283,358.332 80.917 C 356.841 77.747,356.608 69.161,357.874 64.000 C 358.065 63.221,358.270 62.546,358.329 62.500 C 358.387 62.454,358.534 62.154,358.655 61.833 C 359.080 60.706,360.081 58.582,360.266 58.417 C 360.369 58.325,360.689 57.827,360.978 57.310 C 361.267 56.793,361.803 56.062,362.168 55.685 C 362.534 55.308,362.833 54.925,362.833 54.833 C 362.833 54.742,362.950 54.667,363.093 54.667 C 363.236 54.667,363.315 54.605,363.269 54.530 C 363.222 54.455,363.345 54.287,363.542 54.155 C 363.738 54.024,364.240 53.610,364.658 53.236 C 365.075 52.862,365.867 52.305,366.417 51.998 C 366.967 51.691,367.477 51.341,367.550 51.220 C 367.623 51.099,367.815 51.000,367.975 51.000 C 368.135 51.000,368.338 50.931,368.425 50.846 C 368.621 50.656,371.436 49.724,372.290 49.567 C 372.635 49.504,372.954 49.394,373.001 49.324 C 373.392 48.728,381.447 48.729,382.750 49.325 C 382.933 49.409,383.721 49.665,384.500 49.894 C 386.350 50.437,387.643 50.930,387.980 51.220 C 388.128 51.348,388.813 51.776,389.500 52.170 C 390.188 52.564,390.928 53.061,391.146 53.274 C 392.301 54.408,394.877 54.194,395.678 52.899 C 395.870 52.588,396.091 52.333,396.168 52.333 C 396.246 52.333,396.572 51.902,396.894 51.375 C 397.215 50.848,397.914 49.840,398.447 49.134 C 398.980 48.429,399.561 47.583,399.738 47.254 L 400.058 46.656 399.321 45.899 C 398.915 45.484,398.096 44.797,397.500 44.373 C 396.904 43.950,396.379 43.553,396.333 43.491 C 396.200 43.309,394.363 42.167,394.206 42.167 C 394.127 42.167,393.895 42.010,393.689 41.819 C 393.484 41.627,392.589 41.174,391.700 40.811 C 390.811 40.448,389.783 40.009,389.417 39.836 C 384.764 37.634,370.812 37.523,366.258 39.652 C 365.887 39.825,365.283 40.057,364.917 40.168 C 364.063 40.425,361.443 41.522,361.333 41.669 C 361.287 41.730,360.624 42.104,359.860 42.500 C 359.095 42.896,358.431 43.320,358.383 43.443 C 358.336 43.566,358.231 43.667,358.150 43.667 C 357.892 43.667,355.911 45.091,355.172 45.808 C 354.299 46.656,354.172 46.661,353.500 45.875 C 353.206 45.531,352.798 45.137,352.592 45.000 C 352.164 44.713,350.908 43.792,350.417 43.405 C 350.233 43.260,349.558 42.835,348.917 42.460 C 348.275 42.085,347.712 41.727,347.667 41.664 C 347.577 41.542,344.946 40.333,344.769 40.333 C 344.711 40.333,344.345 40.186,343.957 40.007 C 338.681 37.570,325.295 37.451,319.978 39.795 C 319.578 39.971,318.510 40.404,317.605 40.756 C 316.701 41.108,315.876 41.480,315.772 41.581 C 315.668 41.683,315.021 42.046,314.333 42.389 C 312.906 43.100,312.604 43.283,312.075 43.756 C 311.866 43.942,311.484 44.205,311.225 44.339 C 310.648 44.639,310.107 45.081,309.448 45.792 C 309.172 46.090,308.865 46.335,308.765 46.336 C 308.665 46.338,308.407 46.525,308.191 46.753 C 307.975 46.980,307.731 47.167,307.649 47.167 C 307.567 47.167,307.500 47.277,307.500 47.413 C 307.500 47.548,307.317 47.779,307.094 47.925 C 306.871 48.071,306.369 48.616,305.979 49.137 C 305.589 49.657,305.208 50.109,305.133 50.139 C 304.818 50.269,302.682 53.738,301.729 55.667 C 300.723 57.703,300.224 58.991,299.731 60.824 C 299.597 61.323,299.425 61.810,299.349 61.907 C 299.109 62.210,298.499 65.836,298.358 67.794 C 298.190 70.118,298.440 70.021,295.905 68.744 C 294.720 68.148,293.300 67.513,292.750 67.333 C 291.281 66.854,290.128 66.427,289.750 66.220 C 289.567 66.121,288.367 65.726,287.083 65.344 C 285.800 64.962,284.525 64.549,284.250 64.426 C 283.975 64.304,283.563 64.149,283.333 64.082 C 282.382 63.805,279.500 62.622,279.500 62.509 C 279.500 62.441,279.155 62.208,278.733 61.991 C 274.145 59.632,274.120 52.423,278.691 50.005 C 279.273 49.697,279.788 49.389,279.834 49.321 C 280.337 48.578,287.192 48.263,289.250 48.888 C 289.800 49.055,290.625 49.365,291.083 49.577 C 293.734 50.801,294.297 51.084,294.750 51.423 C 296.498 52.730,298.412 53.159,299.804 52.556 C 300.433 52.284,300.532 52.164,301.075 51.006 C 301.224 50.688,301.405 50.388,301.477 50.339 C 301.549 50.290,301.975 49.500,302.422 48.583 C 302.870 47.667,303.326 46.824,303.437 46.711 C 304.204 45.925,304.221 44.333,303.463 44.333 C 303.379 44.333,302.963 43.996,302.539 43.583 C 302.114 43.171,301.705 42.833,301.628 42.833 C 301.552 42.833,300.985 42.508,300.370 42.110 C 298.743 41.061,298.210 40.780,297.000 40.336 C 296.404 40.118,295.764 39.843,295.578 39.724 C 293.889 38.652,286.011 37.758,281.917 38.173 M335.250 49.017 C 337.191 49.254,341.647 50.713,342.401 51.358 C 342.501 51.444,343.182 51.866,343.913 52.296 C 344.645 52.725,345.379 53.213,345.545 53.378 C 345.976 53.810,346.571 54.000,347.487 54.000 L 348.285 54.000 347.873 54.875 C 347.646 55.356,347.173 56.350,346.820 57.083 C 346.234 58.301,345.000 62.201,345.000 62.835 C 345.000 62.981,344.930 63.171,344.844 63.258 C 344.093 64.020,343.777 74.610,344.399 78.167 C 344.567 79.129,344.709 80.010,344.713 80.125 C 344.718 80.240,344.785 80.333,344.861 80.333 C 344.938 80.333,345.000 80.472,345.000 80.642 C 345.000 81.520,346.518 86.619,346.843 86.834 C 346.913 86.880,347.120 87.311,347.302 87.792 L 347.635 88.667 346.901 88.667 C 346.378 88.667,346.066 88.767,345.818 89.016 C 345.626 89.208,345.195 89.550,344.859 89.778 C 344.524 90.005,343.989 90.429,343.670 90.720 C 342.962 91.367,342.748 91.500,341.167 92.269 C 340.479 92.604,339.872 92.948,339.817 93.033 C 339.223 93.956,330.759 94.742,327.417 94.184 C 326.117 93.968,323.372 93.203,323.095 92.981 C 322.997 92.902,322.242 92.489,321.417 92.063 C 320.592 91.637,319.656 91.036,319.338 90.728 C 319.020 90.419,318.683 90.166,318.588 90.166 C 318.331 90.165,316.041 87.632,315.470 86.716 C 315.196 86.277,314.880 85.842,314.769 85.750 C 314.657 85.658,314.201 84.758,313.755 83.750 C 313.309 82.742,312.898 81.879,312.842 81.833 C 312.519 81.567,311.595 77.439,311.339 75.113 C 310.888 71.024,311.631 64.320,312.817 61.772 C 313.757 59.751,314.541 58.204,314.811 57.833 C 314.978 57.604,315.333 57.085,315.599 56.679 C 316.154 55.833,318.319 53.500,318.549 53.500 C 318.633 53.500,318.839 53.325,319.007 53.112 C 319.175 52.899,319.765 52.483,320.318 52.188 C 320.871 51.893,321.434 51.543,321.567 51.409 C 321.892 51.084,323.933 50.278,325.583 49.824 C 326.317 49.621,327.067 49.392,327.250 49.313 C 328.283 48.872,332.714 48.708,335.250 49.017 " stroke="none" fill="#fcfcfc" fill-rule="evenodd"></path><path id="path1" d="M15.571 27.560 C 15.289 27.688,14.825 28.110,14.540 28.498 C 14.254 28.886,13.866 29.312,13.677 29.445 C 13.488 29.577,13.333 29.780,13.333 29.895 C 13.333 30.010,13.101 30.325,12.818 30.594 C 12.535 30.863,12.149 31.383,11.961 31.750 C 11.773 32.117,11.342 32.732,11.003 33.118 C 10.665 33.503,10.147 34.253,9.854 34.784 C 9.560 35.315,9.011 36.237,8.635 36.833 C 7.479 38.662,6.851 39.846,5.673 42.417 C 4.678 44.588,4.545 44.915,4.176 46.083 C 3.974 46.725,3.702 47.368,3.572 47.512 C 3.442 47.656,3.139 48.556,2.899 49.512 C 2.659 50.468,2.358 51.453,2.231 51.700 C 2.104 51.948,2.000 52.405,2.000 52.716 C 2.000 53.027,1.892 53.500,1.760 53.766 C 1.628 54.032,1.358 55.225,1.160 56.417 C 0.962 57.608,0.754 58.658,0.698 58.749 C 0.642 58.841,0.543 59.703,0.477 60.666 C 0.412 61.629,0.272 63.692,0.166 65.250 C 0.060 66.808,0.022 68.871,0.081 69.833 C 0.240 72.424,0.964 79.315,1.157 80.083 C 1.250 80.450,1.327 80.960,1.329 81.216 C 1.332 81.473,1.481 81.987,1.660 82.360 C 1.840 82.732,2.138 83.760,2.322 84.643 C 2.649 86.218,3.276 88.257,3.738 89.250 C 3.866 89.525,4.138 90.313,4.344 91.000 C 4.549 91.688,4.930 92.562,5.190 92.943 C 5.450 93.325,5.922 94.281,6.239 95.069 C 6.557 95.856,7.016 96.761,7.259 97.080 C 7.502 97.399,7.877 98.092,8.091 98.619 C 8.305 99.147,8.716 99.879,9.004 100.247 C 9.658 101.083,11.098 103.229,11.993 104.701 C 12.367 105.316,12.804 105.916,12.964 106.034 C 13.125 106.153,13.399 106.475,13.574 106.750 C 13.749 107.025,14.434 107.850,15.096 108.583 C 15.758 109.317,16.558 110.209,16.872 110.567 C 19.136 113.140,25.081 108.694,25.294 104.271 C 25.383 102.395,25.184 101.953,23.415 100.106 C 21.771 98.389,20.926 97.313,19.933 95.667 C 19.573 95.071,19.106 94.354,18.894 94.074 C 18.683 93.794,18.351 93.232,18.158 92.824 C 17.964 92.417,17.626 91.783,17.406 91.417 C 16.609 90.084,14.833 86.336,14.833 85.986 C 14.833 85.847,14.766 85.662,14.684 85.575 C 14.496 85.377,13.500 82.468,13.500 82.119 C 13.500 81.977,13.439 81.836,13.363 81.806 C 13.192 81.736,12.162 76.936,12.165 76.219 C 12.166 75.927,12.091 75.490,11.999 75.248 C 11.565 74.105,11.334 66.464,11.660 64.011 C 11.752 63.317,11.902 61.996,11.993 61.074 C 12.083 60.153,12.264 59.028,12.394 58.574 C 12.524 58.121,12.757 57.076,12.911 56.252 C 13.065 55.429,13.253 54.679,13.329 54.586 C 13.405 54.493,13.556 54.079,13.665 53.667 C 13.774 53.254,13.962 52.692,14.083 52.417 C 14.203 52.142,14.461 51.374,14.655 50.711 C 14.849 50.047,15.231 49.174,15.504 48.770 C 15.777 48.366,16.000 47.912,16.000 47.762 C 16.000 47.429,16.736 45.934,17.236 45.250 C 17.438 44.975,17.733 44.399,17.893 43.971 C 18.054 43.543,18.424 42.875,18.717 42.488 C 19.010 42.100,19.325 41.664,19.417 41.517 C 19.508 41.370,19.827 40.902,20.125 40.478 C 20.423 40.053,20.667 39.654,20.667 39.592 C 20.667 39.529,20.922 39.207,21.234 38.877 C 21.592 38.497,21.945 37.841,22.192 37.096 C 22.407 36.447,22.638 35.876,22.704 35.826 C 22.923 35.662,23.184 33.265,23.075 32.417 C 22.629 28.955,18.450 26.250,15.571 27.560 M227.167 27.720 C 225.956 28.221,224.635 29.458,224.145 30.551 C 223.250 32.548,223.865 37.104,225.235 38.633 C 225.539 38.972,225.914 39.475,226.068 39.750 C 226.395 40.335,227.021 41.243,227.505 41.833 C 227.692 42.063,228.147 42.864,228.515 43.614 C 228.883 44.364,229.242 45.002,229.311 45.031 C 229.512 45.114,230.667 47.553,230.667 47.894 C 230.667 48.063,230.849 48.419,231.072 48.683 C 231.295 48.948,231.752 50.009,232.088 51.041 C 232.424 52.073,232.834 53.217,232.998 53.583 C 233.162 53.950,233.461 55.075,233.662 56.083 C 233.862 57.092,234.132 58.279,234.261 58.722 C 234.390 59.164,234.578 60.402,234.678 61.472 C 234.778 62.541,234.941 63.584,235.040 63.790 C 235.415 64.565,235.279 71.564,234.840 74.083 C 234.744 74.633,234.589 75.674,234.496 76.396 C 234.403 77.119,234.296 77.759,234.258 77.820 C 234.221 77.880,233.991 78.902,233.747 80.090 C 233.504 81.278,233.208 82.475,233.090 82.750 C 232.638 83.805,231.687 86.280,231.489 86.917 C 231.375 87.283,231.120 87.846,230.921 88.167 C 230.722 88.487,230.427 89.087,230.265 89.500 C 230.103 89.912,229.888 90.349,229.788 90.471 C 229.609 90.686,229.417 91.029,228.444 92.861 C 228.185 93.350,227.615 94.275,227.178 94.917 C 226.741 95.558,226.268 96.308,226.126 96.583 C 225.984 96.858,225.632 97.346,225.343 97.667 C 225.055 97.987,224.714 98.438,224.586 98.667 C 224.457 98.896,223.828 99.594,223.187 100.219 C 220.971 102.379,220.686 103.908,221.998 106.605 C 224.054 110.836,228.189 112.611,230.176 110.116 C 230.544 109.653,231.286 108.781,231.824 108.179 C 233.737 106.037,234.088 105.609,234.583 104.820 C 234.858 104.380,235.802 102.947,236.681 101.635 C 237.559 100.323,238.382 98.987,238.509 98.667 C 238.636 98.346,239.035 97.639,239.395 97.095 C 239.756 96.551,240.143 95.799,240.256 95.423 C 240.369 95.047,240.802 94.124,241.219 93.372 C 241.635 92.620,242.098 91.581,242.249 91.062 C 242.400 90.544,242.623 89.962,242.745 89.768 C 242.994 89.376,244.167 85.677,244.167 85.287 C 244.167 85.150,244.418 84.222,244.725 83.227 C 245.383 81.094,245.725 79.016,246.092 74.917 C 246.239 73.267,246.429 71.786,246.513 71.627 C 246.696 71.283,246.722 64.444,246.542 64.266 C 246.473 64.198,246.296 62.929,246.149 61.446 C 245.841 58.347,245.443 55.797,244.986 53.989 C 244.810 53.295,244.667 52.526,244.667 52.280 C 244.667 52.034,244.603 51.833,244.526 51.833 C 244.382 51.833,243.500 49.087,243.500 48.641 C 243.500 48.506,243.237 47.862,242.914 47.208 C 242.592 46.554,242.281 45.771,242.224 45.468 C 242.166 45.165,241.952 44.579,241.749 44.167 C 241.545 43.754,241.283 43.117,241.166 42.750 C 241.049 42.383,240.812 41.882,240.639 41.635 C 240.466 41.388,240.045 40.563,239.704 39.802 C 239.363 39.040,238.846 38.075,238.556 37.657 C 238.266 37.239,237.662 36.264,237.215 35.491 C 236.462 34.187,234.883 31.925,233.911 30.756 C 233.685 30.484,233.500 30.170,233.500 30.059 C 233.500 29.947,233.271 29.693,232.991 29.493 C 232.711 29.294,232.294 28.833,232.064 28.469 C 231.307 27.270,229.079 26.930,227.167 27.720 M25.667 46.054 C 24.120 46.505,23.262 47.351,21.582 50.083 C 21.131 50.817,20.709 51.455,20.645 51.501 C 20.506 51.602,19.000 55.095,19.000 55.318 C 19.000 55.403,18.938 55.497,18.862 55.528 C 18.645 55.615,17.686 58.612,17.407 60.073 C 17.268 60.801,17.094 61.476,17.019 61.573 C 16.410 62.365,16.151 70.444,16.661 72.730 C 16.746 73.108,16.831 73.792,16.850 74.250 C 16.870 74.708,16.938 75.158,17.003 75.250 C 17.067 75.342,17.291 76.129,17.501 77.000 C 17.878 78.569,18.238 79.630,18.830 80.917 C 18.999 81.283,19.402 82.165,19.727 82.876 C 20.052 83.587,20.501 84.412,20.724 84.709 C 20.947 85.007,21.410 85.813,21.752 86.500 C 23.165 89.339,24.654 90.542,26.757 90.542 C 31.707 90.542,35.040 84.539,32.067 80.980 C 31.739 80.588,31.244 79.814,30.964 79.259 C 30.685 78.704,30.398 78.212,30.326 78.165 C 30.151 78.053,29.333 75.870,29.333 75.515 C 29.333 75.362,29.183 74.943,29.000 74.583 C 28.817 74.224,28.667 73.794,28.667 73.629 C 28.667 73.464,28.597 73.199,28.512 73.039 C 28.183 72.424,27.852 68.306,28.013 66.833 C 28.549 61.930,29.378 59.514,31.845 55.667 C 34.850 50.981,30.734 44.577,25.667 46.054 M218.113 46.074 C 215.590 46.799,213.750 49.438,213.750 52.330 C 213.750 54.067,213.798 54.192,215.388 56.567 C 216.097 57.626,217.190 60.014,217.505 61.191 C 217.612 61.590,217.759 61.992,217.832 62.083 C 218.215 62.567,218.724 66.867,218.621 68.750 C 218.478 71.343,218.068 74.333,217.855 74.333 C 217.725 74.333,217.445 75.007,217.183 75.956 C 216.803 77.331,215.844 79.174,214.447 81.215 C 211.849 85.010,214.992 90.525,219.759 90.535 C 222.025 90.539,223.234 89.620,224.757 86.734 C 225.188 85.918,225.635 85.137,225.750 85.000 C 226.553 84.040,228.154 80.378,228.919 77.750 C 229.133 77.017,229.384 76.154,229.478 75.833 C 230.447 72.508,230.447 63.274,229.477 60.890 C 229.372 60.630,229.227 60.079,229.156 59.667 C 228.994 58.724,227.831 55.356,227.286 54.250 C 227.060 53.792,226.704 53.004,226.494 52.500 C 226.284 51.996,225.980 51.433,225.820 51.250 C 225.659 51.067,225.176 50.319,224.745 49.589 C 222.910 46.475,220.734 45.321,218.113 46.074 " stroke="none" fill="#b4b4b4" fill-rule="evenodd"></path><path id="path2" d="M119.083 50.410 C 114.029 51.582,110.001 54.314,107.131 58.519 C 106.718 59.125,106.223 59.777,106.032 59.968 C 105.842 60.158,105.594 60.637,105.481 61.032 C 105.369 61.427,105.064 62.402,104.802 63.199 C 103.533 67.075,103.544 71.678,104.831 75.518 C 105.107 76.344,105.333 77.155,105.333 77.320 C 105.333 77.486,105.474 77.801,105.647 78.020 C 105.819 78.239,106.434 79.131,107.014 80.001 C 114.680 91.517,131.875 91.650,139.290 80.250 C 139.767 79.517,140.340 78.714,140.563 78.467 C 140.787 78.220,141.023 77.770,141.089 77.467 C 141.154 77.164,141.421 76.263,141.681 75.463 C 142.950 71.563,142.931 66.892,141.631 63.083 C 141.443 62.533,141.268 61.933,141.243 61.750 C 141.157 61.139,140.642 60.089,140.180 59.583 C 139.930 59.308,139.436 58.671,139.084 58.167 C 134.669 51.850,126.514 48.687,119.083 50.410 " stroke="none" fill="#63dbfb" fill-rule="evenodd"></path><path id="path3" d="M79.143 0.073 C 79.083 0.136,78.708 0.186,78.309 0.184 C 77.256 0.180,74.000 0.681,74.000 0.848 C 74.000 0.926,73.895 0.949,73.767 0.900 C 73.532 0.810,72.485 1.045,71.688 1.368 C 71.447 1.465,71.064 1.569,70.836 1.599 C 70.608 1.628,70.395 1.731,70.364 1.826 C 70.332 1.922,70.218 2.000,70.111 2.001 C 69.849 2.002,66.632 3.458,66.512 3.630 C 66.459 3.705,66.060 3.972,65.625 4.223 C 65.190 4.475,64.833 4.753,64.833 4.840 C 64.833 4.928,64.729 5.000,64.600 5.000 C 64.156 5.000,60.167 8.600,60.167 9.001 C 60.167 9.077,60.110 9.164,60.040 9.194 C 59.971 9.225,59.653 9.587,59.334 10.000 C 59.016 10.412,58.659 10.850,58.543 10.972 C 58.426 11.094,58.373 11.262,58.425 11.347 C 58.477 11.431,58.446 11.500,58.355 11.500 C 58.198 11.500,58.017 11.797,57.290 13.250 C 57.106 13.617,56.894 13.957,56.817 14.006 C 56.618 14.135,55.748 16.373,55.331 17.833 C 55.135 18.521,54.908 19.233,54.826 19.417 C 53.850 21.617,53.600 34.000,54.532 34.000 C 54.617 34.000,54.644 34.069,54.592 34.152 C 54.540 34.236,54.592 34.343,54.707 34.389 C 54.874 34.456,54.873 34.476,54.705 34.487 C 54.488 34.500,54.546 35.069,54.834 35.750 C 54.911 35.933,55.103 36.646,55.259 37.333 C 55.416 38.021,55.725 39.166,55.947 39.878 C 56.439 41.458,56.551 41.286,54.288 42.413 C 51.491 43.804,48.578 45.697,47.034 47.125 C 46.613 47.515,46.211 47.833,46.140 47.833 C 45.682 47.833,40.934 53.248,41.115 53.565 C 41.173 53.667,41.158 53.693,41.081 53.624 C 40.958 53.512,40.003 54.751,40.001 55.025 C 40.000 55.084,39.745 55.512,39.434 55.975 C 39.122 56.437,38.732 57.176,38.567 57.616 C 38.402 58.057,38.095 58.747,37.884 59.150 C 37.673 59.553,37.500 60.007,37.500 60.158 C 37.500 60.310,37.436 60.505,37.358 60.592 C 35.835 62.292,35.740 72.645,37.206 77.163 C 37.490 78.036,37.770 78.787,37.830 78.833 C 37.890 78.879,38.071 79.254,38.232 79.667 C 38.393 80.079,38.621 80.567,38.739 80.750 C 38.857 80.933,38.962 81.140,38.973 81.210 C 39.007 81.424,39.539 82.412,39.668 82.500 C 39.735 82.546,40.042 82.996,40.350 83.500 C 40.876 84.360,41.014 84.550,41.677 85.337 C 41.820 85.507,42.083 85.854,42.260 86.109 C 43.210 87.472,48.061 91.991,48.973 92.363 C 49.125 92.425,49.512 92.706,49.833 92.987 C 50.154 93.269,50.510 93.499,50.625 93.500 C 50.740 93.500,50.834 93.556,50.835 93.625 C 50.835 93.694,51.004 93.829,51.210 93.926 C 51.926 94.264,53.083 94.918,53.172 95.035 C 53.221 95.101,53.990 95.499,54.881 95.921 C 55.771 96.343,56.500 96.745,56.500 96.815 C 56.500 96.885,56.324 97.461,56.109 98.096 C 55.894 98.731,55.548 99.925,55.342 100.750 C 55.135 101.575,54.901 102.400,54.822 102.583 C 54.616 103.061,54.295 105.017,54.405 105.127 C 54.456 105.178,54.419 105.314,54.323 105.429 C 54.227 105.544,54.118 106.248,54.081 106.992 C 54.043 107.736,53.972 108.411,53.922 108.492 C 53.744 108.780,53.998 114.941,54.246 116.333 C 54.574 118.183,54.616 118.401,54.665 118.500 C 54.687 118.546,54.720 118.658,54.737 118.750 C 54.755 118.842,54.816 119.029,54.874 119.167 C 54.931 119.304,55.183 120.092,55.433 120.917 C 56.875 125.680,61.307 131.559,65.333 134.050 C 66.021 134.476,66.680 134.906,66.797 135.007 C 67.086 135.254,69.281 136.333,69.495 136.333 C 69.589 136.333,70.137 136.556,70.713 136.828 C 72.218 137.539,76.897 138.549,78.417 138.491 C 78.600 138.484,79.462 138.530,80.333 138.592 C 82.116 138.720,85.940 138.461,88.029 138.071 C 88.792 137.928,89.580 137.786,89.779 137.755 C 89.978 137.724,90.370 137.648,90.651 137.587 C 90.931 137.525,91.219 137.474,91.289 137.472 C 91.359 137.471,91.654 137.370,91.945 137.249 C 92.235 137.128,92.516 137.072,92.570 137.125 C 92.623 137.179,92.667 137.137,92.667 137.033 C 92.667 136.928,92.785 136.889,92.933 136.946 C 93.080 137.002,93.249 136.971,93.308 136.876 C 93.368 136.781,93.979 136.537,94.667 136.333 C 95.354 136.129,96.217 135.827,96.583 135.662 C 96.950 135.497,97.531 135.275,97.875 135.168 C 98.219 135.062,98.500 134.905,98.500 134.820 C 98.500 134.736,98.572 134.667,98.660 134.667 C 98.883 134.667,102.057 133.174,102.164 133.019 C 102.211 132.950,102.850 132.567,103.583 132.168 C 104.317 131.769,105.080 131.284,105.280 131.089 C 105.480 130.895,105.855 130.628,106.113 130.497 C 106.631 130.235,109.792 127.939,110.583 127.250 C 110.858 127.010,111.440 126.581,111.875 126.296 C 112.310 126.011,112.667 125.710,112.667 125.629 C 112.667 125.547,112.737 125.524,112.823 125.577 C 112.909 125.630,113.040 125.578,113.115 125.461 C 113.189 125.345,113.578 125.027,113.979 124.755 C 114.379 124.483,114.827 124.070,114.974 123.838 C 115.121 123.606,115.618 123.025,116.079 122.547 C 117.844 120.715,118.121 120.414,118.122 120.333 C 118.124 120.252,118.831 119.387,119.339 118.844 C 120.226 117.898,123.222 113.444,123.072 113.294 C 123.027 113.249,123.149 113.220,123.344 113.231 C 123.583 113.244,123.837 113.497,124.116 114.000 C 124.345 114.412,124.698 114.938,124.900 115.167 C 125.103 115.396,125.452 115.864,125.676 116.207 C 125.900 116.550,126.140 116.832,126.208 116.832 C 126.277 116.833,126.333 116.942,126.333 117.074 C 126.333 117.206,126.465 117.412,126.625 117.532 C 126.785 117.652,127.123 118.050,127.374 118.417 C 127.626 118.783,128.212 119.496,128.676 120.000 C 129.139 120.504,129.711 121.160,129.946 121.458 C 130.181 121.756,130.433 122.000,130.507 122.000 C 130.668 122.000,132.167 123.479,132.167 123.639 C 132.167 123.701,132.502 124.014,132.911 124.334 C 133.321 124.655,133.700 125.046,133.754 125.204 C 133.809 125.362,134.092 125.658,134.385 125.863 C 134.677 126.067,134.954 126.276,135.000 126.328 C 135.247 126.605,137.333 128.331,137.833 128.671 C 138.154 128.889,138.472 129.146,138.539 129.242 C 138.610 129.343,138.663 129.349,138.664 129.255 C 138.666 129.165,138.778 129.251,138.914 129.445 C 139.050 129.640,139.556 130.024,140.039 130.299 C 140.522 130.574,141.067 130.942,141.250 131.116 C 141.433 131.290,142.183 131.762,142.917 132.164 C 143.650 132.566,144.275 132.956,144.306 133.032 C 144.337 133.107,144.430 133.126,144.514 133.075 C 144.598 133.023,144.667 133.064,144.667 133.167 C 144.667 133.269,144.742 133.307,144.833 133.250 C 144.925 133.193,145.000 133.216,145.000 133.300 C 145.000 133.455,147.506 134.667,147.827 134.667 C 147.922 134.667,148.000 134.746,148.000 134.843 C 148.000 134.940,148.075 134.973,148.167 134.917 C 148.258 134.860,148.333 134.901,148.333 135.008 C 148.333 135.115,148.449 135.158,148.592 135.103 C 148.734 135.048,148.813 135.064,148.768 135.138 C 148.722 135.212,149.637 135.594,150.801 135.986 C 151.964 136.379,153.142 136.805,153.417 136.933 C 156.406 138.322,169.658 139.303,170.497 138.197 C 170.545 138.134,170.857 138.075,171.192 138.066 C 171.527 138.056,171.939 137.991,172.109 137.921 C 172.278 137.852,172.668 137.769,172.975 137.737 C 173.282 137.706,173.639 137.592,173.767 137.486 C 173.895 137.380,174.000 137.335,174.000 137.387 C 174.000 137.552,175.708 136.983,175.955 136.736 C 176.084 136.606,176.292 136.500,176.417 136.500 C 176.802 136.500,179.833 135.030,179.833 134.843 C 179.833 134.746,179.922 134.667,180.030 134.667 C 180.328 134.667,182.333 133.319,182.333 133.119 C 182.333 133.023,182.375 132.986,182.425 133.036 C 182.556 133.167,187.333 128.349,187.333 128.086 C 187.333 127.967,187.442 127.827,187.576 127.776 C 187.709 127.725,187.977 127.398,188.172 127.050 C 188.367 126.702,188.784 125.967,189.099 125.417 C 189.993 123.855,190.526 122.640,190.427 122.384 C 190.378 122.255,190.404 122.191,190.486 122.241 C 190.567 122.292,190.795 121.789,190.991 121.125 C 191.187 120.460,191.412 119.767,191.491 119.583 C 191.774 118.930,192.034 117.690,191.925 117.513 C 191.864 117.414,191.883 117.333,191.969 117.333 C 192.114 117.333,192.453 114.558,192.488 113.083 C 192.497 112.717,192.543 112.229,192.589 112.000 C 192.829 110.829,192.103 103.859,191.591 102.417 C 191.461 102.050,191.152 100.962,190.905 100.000 C 190.659 99.037,190.382 98.156,190.291 98.042 C 190.200 97.927,190.169 97.833,190.221 97.833 C 190.273 97.833,190.208 97.573,190.075 97.255 C 189.755 96.491,189.719 96.558,190.664 96.152 C 191.135 95.949,191.449 95.719,191.389 95.621 C 191.328 95.523,191.362 95.498,191.469 95.564 C 191.649 95.676,192.661 95.254,192.833 94.995 C 192.879 94.927,193.179 94.752,193.500 94.608 C 194.696 94.068,196.122 93.171,196.735 92.572 C 196.835 92.475,197.273 92.186,197.709 91.931 C 198.145 91.676,198.558 91.379,198.626 91.271 C 198.694 91.164,198.955 90.945,199.205 90.786 C 199.905 90.341,203.594 86.707,204.118 85.946 C 204.374 85.574,204.756 85.096,204.967 84.884 C 205.178 84.671,205.304 84.421,205.247 84.328 C 205.189 84.235,205.220 84.179,205.316 84.204 C 205.648 84.292,208.934 78.298,208.733 77.972 C 208.686 77.896,208.718 77.833,208.805 77.833 C 208.981 77.833,209.507 75.996,209.949 73.833 C 210.360 71.823,210.360 66.337,209.949 64.292 C 209.561 62.360,208.852 59.931,208.656 59.861 C 208.570 59.831,208.500 59.732,208.500 59.642 C 208.500 59.167,207.326 56.984,207.130 57.095 C 206.963 57.189,206.960 57.169,207.116 57.000 C 207.332 56.766,206.978 55.833,206.674 55.833 C 206.590 55.833,206.473 55.678,206.413 55.489 C 206.309 55.162,204.903 53.009,204.679 52.833 C 204.620 52.788,204.275 52.379,203.911 51.925 C 202.619 50.313,199.955 47.777,198.162 46.453 C 197.569 46.015,196.878 45.486,196.628 45.278 C 196.377 45.070,195.738 44.667,195.207 44.382 C 194.677 44.097,193.832 43.594,193.330 43.263 C 192.829 42.933,192.307 42.705,192.172 42.757 C 192.037 42.809,191.983 42.795,192.052 42.726 C 192.175 42.603,190.209 41.588,189.953 41.643 C 189.882 41.658,189.929 41.463,190.059 41.210 C 190.377 40.589,191.009 38.315,190.908 38.153 C 190.864 38.082,190.896 37.981,190.978 37.930 C 191.061 37.879,191.182 37.555,191.246 37.210 C 191.310 36.865,191.429 36.504,191.509 36.406 C 191.590 36.309,191.695 35.971,191.744 35.656 C 191.792 35.341,191.940 34.508,192.072 33.806 C 192.480 31.629,192.718 27.905,192.587 25.750 C 192.520 24.650,192.463 23.637,192.460 23.500 C 192.457 23.363,192.399 23.175,192.332 23.083 C 192.265 22.992,192.235 22.767,192.266 22.583 C 192.402 21.785,191.318 17.658,190.427 15.583 C 190.309 15.308,190.078 14.765,189.914 14.375 C 189.750 13.985,189.557 13.667,189.486 13.667 C 189.414 13.667,189.304 13.498,189.242 13.292 C 188.761 11.710,185.592 7.787,183.500 6.184 C 183.088 5.868,182.675 5.523,182.583 5.418 C 182.335 5.134,180.255 3.833,180.048 3.833 C 179.949 3.833,179.831 3.733,179.783 3.610 C 179.697 3.384,176.662 2.000,176.252 2.000 C 176.129 2.000,176.002 1.922,175.970 1.826 C 175.938 1.731,175.688 1.623,175.414 1.588 C 175.141 1.552,174.898 1.508,174.875 1.491 C 174.852 1.473,174.777 1.443,174.708 1.424 C 174.640 1.404,174.395 1.310,174.164 1.213 C 173.037 0.742,169.269 0.195,167.375 0.229 C 166.710 0.240,166.146 0.188,166.121 0.113 C 166.064 -0.058,160.308 0.288,159.764 0.495 C 159.546 0.578,159.326 0.603,159.274 0.552 C 159.223 0.501,159.047 0.516,158.882 0.585 C 158.578 0.714,158.341 0.748,157.365 0.803 C 157.010 0.822,156.854 0.899,156.928 1.018 C 157.004 1.142,156.926 1.166,156.689 1.090 C 156.495 1.029,156.245 1.035,156.134 1.104 C 156.022 1.173,155.778 1.251,155.590 1.278 C 155.169 1.338,154.597 1.463,154.542 1.508 C 154.519 1.527,154.425 1.560,154.333 1.583 C 154.242 1.606,154.129 1.644,154.083 1.667 C 154.037 1.690,153.944 1.724,153.875 1.744 C 153.806 1.763,153.637 1.822,153.500 1.875 C 153.362 1.927,152.387 2.248,151.333 2.587 C 150.279 2.926,149.191 3.340,148.916 3.507 C 148.640 3.674,147.785 4.076,147.014 4.401 C 146.244 4.726,145.344 5.171,145.015 5.390 C 144.686 5.610,143.779 6.143,143.000 6.576 C 141.575 7.368,139.039 9.021,138.851 9.280 C 138.795 9.357,138.448 9.615,138.079 9.854 C 137.710 10.093,137.136 10.552,136.804 10.875 C 136.473 11.197,136.121 11.488,136.023 11.522 C 135.291 11.774,127.549 19.580,127.100 20.519 C 127.017 20.692,126.890 20.833,126.817 20.833 C 126.617 20.833,125.329 22.691,125.423 22.843 C 125.468 22.916,125.373 23.019,125.211 23.071 C 125.049 23.123,124.556 23.738,124.116 24.438 C 123.246 25.820,123.084 25.843,122.560 24.661 C 122.026 23.454,116.451 17.347,115.875 17.337 C 115.760 17.335,115.667 17.250,115.667 17.148 C 115.667 16.889,109.232 10.433,108.417 9.874 C 108.050 9.622,107.725 9.360,107.694 9.292 C 107.664 9.223,107.533 9.167,107.403 9.167 C 107.273 9.167,107.167 9.097,107.167 9.012 C 107.167 8.927,106.698 8.574,106.125 8.229 C 105.552 7.883,105.008 7.510,104.917 7.400 C 104.825 7.291,104.075 6.847,103.250 6.414 C 102.425 5.981,101.711 5.565,101.663 5.490 C 101.616 5.416,101.203 5.196,100.747 5.002 C 100.290 4.807,99.546 4.465,99.092 4.241 C 98.639 4.017,98.170 3.833,98.051 3.833 C 97.931 3.833,97.833 3.754,97.833 3.657 C 97.833 3.560,97.765 3.523,97.681 3.575 C 97.597 3.626,97.503 3.600,97.473 3.517 C 97.359 3.207,91.759 1.372,89.506 0.906 C 86.600 0.305,79.463 -0.269,79.143 0.073 M85.925 13.321 C 86.012 13.406,86.571 13.511,87.167 13.553 C 87.763 13.595,88.362 13.668,88.500 13.716 C 88.638 13.763,89.288 13.924,89.945 14.075 C 91.546 14.442,93.726 15.161,93.852 15.365 C 93.908 15.455,93.983 15.517,94.019 15.503 C 94.176 15.439,97.393 16.894,97.713 17.174 C 97.825 17.271,98.542 17.715,99.305 18.159 C 100.069 18.604,100.862 19.125,101.068 19.319 C 101.273 19.512,101.492 19.619,101.554 19.557 C 101.616 19.495,101.667 19.521,101.667 19.615 C 101.667 19.708,102.004 19.998,102.417 20.259 C 102.829 20.520,103.167 20.777,103.167 20.830 C 103.167 20.883,103.589 21.224,104.105 21.588 C 104.622 21.952,105.165 22.393,105.314 22.567 C 105.643 22.953,105.717 23.027,107.726 24.976 C 108.610 25.834,109.333 26.589,109.333 26.653 C 109.333 26.718,109.566 26.991,109.850 27.260 C 110.134 27.530,110.595 28.087,110.873 28.500 C 111.152 28.912,111.476 29.329,111.593 29.425 C 111.711 29.522,112.185 30.234,112.648 31.009 C 113.110 31.783,113.594 32.529,113.723 32.667 C 113.852 32.804,114.010 33.087,114.074 33.294 C 114.140 33.506,114.270 33.623,114.371 33.560 C 114.476 33.495,114.504 33.526,114.437 33.633 C 114.331 33.805,114.711 34.847,115.545 36.667 C 115.733 37.079,116.097 38.232,116.352 39.228 C 116.608 40.224,116.853 41.076,116.898 41.120 C 116.942 41.165,116.909 41.385,116.823 41.610 C 116.737 41.836,116.635 42.259,116.594 42.552 C 116.554 42.844,116.451 43.458,116.364 43.917 C 116.278 44.375,116.201 44.862,116.193 45.000 C 116.186 45.137,116.066 46.038,115.927 47.000 C 115.788 47.962,115.672 49.069,115.670 49.458 C 115.668 49.848,115.617 50.167,115.557 50.167 C 115.404 50.167,114.274 49.307,114.136 49.086 C 114.074 48.985,113.475 48.531,112.805 48.077 C 112.136 47.622,111.400 47.081,111.171 46.875 C 110.941 46.669,110.513 46.386,110.218 46.246 C 109.924 46.106,109.473 45.816,109.216 45.601 C 108.960 45.387,108.075 44.849,107.250 44.407 C 106.425 43.965,105.712 43.553,105.667 43.493 C 105.479 43.246,104.814 42.992,104.637 43.101 C 104.522 43.173,104.495 43.144,104.567 43.026 C 104.633 42.920,104.609 42.833,104.514 42.833 C 104.419 42.833,103.850 42.608,103.250 42.333 C 102.650 42.058,102.085 41.833,101.996 41.833 C 101.906 41.833,101.833 41.763,101.833 41.678 C 101.833 41.534,101.301 41.279,100.917 41.240 C 100.825 41.230,100.525 41.125,100.250 41.005 C 99.075 40.492,98.710 40.353,98.000 40.150 C 97.587 40.032,97.079 39.827,96.870 39.695 C 96.661 39.563,96.445 39.500,96.390 39.554 C 96.336 39.609,96.094 39.554,95.854 39.433 C 95.355 39.181,92.484 38.465,90.750 38.161 C 90.108 38.048,89.503 37.893,89.406 37.816 C 89.308 37.739,88.820 37.638,88.322 37.591 C 87.824 37.544,86.854 37.411,86.167 37.295 C 83.335 36.818,70.775 37.098,68.856 37.681 C 68.188 37.883,67.250 33.816,67.141 30.250 C 67.106 29.073,67.875 24.550,68.148 24.333 C 68.303 24.210,69.334 21.784,69.334 21.542 C 69.334 21.427,69.403 21.333,69.489 21.333 C 69.574 21.333,69.687 21.199,69.739 21.035 C 69.791 20.871,70.130 20.408,70.493 20.008 C 70.856 19.607,71.124 19.232,71.089 19.175 C 71.053 19.118,71.405 18.737,71.871 18.327 C 72.336 17.918,72.959 17.346,73.255 17.056 C 73.551 16.767,74.029 16.407,74.318 16.258 C 74.625 16.099,74.796 15.908,74.730 15.800 C 74.664 15.693,74.690 15.662,74.794 15.725 C 74.892 15.786,75.410 15.575,75.944 15.257 C 77.325 14.435,80.635 13.430,81.779 13.484 C 82.070 13.498,82.356 13.432,82.414 13.338 C 82.547 13.123,85.707 13.108,85.925 13.321 M165.995 13.742 C 167.840 14.120,169.269 14.631,170.635 15.398 C 171.306 15.775,172.042 16.184,172.272 16.306 C 172.502 16.429,172.966 16.823,173.304 17.181 C 173.641 17.540,174.002 17.833,174.106 17.833 C 174.210 17.833,174.408 18.002,174.546 18.208 C 174.685 18.415,175.012 18.828,175.274 19.128 C 176.355 20.365,176.621 20.758,177.462 22.359 C 178.427 24.196,178.974 25.876,179.109 27.417 C 179.157 27.967,179.246 28.435,179.306 28.458 C 179.522 28.540,179.175 33.278,178.833 34.917 C 178.412 36.930,178.027 38.358,178.011 37.956 C 178.003 37.746,177.868 37.664,177.542 37.671 C 177.290 37.677,176.671 37.602,176.167 37.506 C 175.662 37.409,174.621 37.296,173.852 37.254 C 173.084 37.211,172.414 37.136,172.364 37.086 C 172.156 36.878,161.788 37.021,159.631 37.261 C 156.418 37.619,155.926 37.692,155.833 37.825 C 155.787 37.891,155.171 38.043,154.463 38.162 C 153.755 38.281,153.203 38.425,153.238 38.481 C 153.272 38.537,153.064 38.589,152.775 38.596 C 152.158 38.612,149.066 39.454,148.583 39.738 C 148.400 39.845,147.364 40.259,146.282 40.656 C 145.199 41.052,144.211 41.480,144.085 41.605 C 143.960 41.731,143.812 41.833,143.756 41.833 C 143.346 41.833,137.757 44.889,137.083 45.481 C 136.900 45.642,136.356 46.020,135.875 46.321 C 135.394 46.622,135.000 46.935,135.000 47.017 C 135.000 47.099,134.919 47.167,134.821 47.167 C 134.637 47.167,132.818 48.516,132.292 49.042 C 132.131 49.202,132.000 49.279,132.000 49.213 C 132.000 49.147,131.883 49.259,131.741 49.463 C 131.259 50.151,131.014 49.746,130.904 48.083 C 130.833 46.995,130.404 44.084,130.079 42.487 C 129.850 41.356,129.849 41.121,130.075 40.257 C 130.213 39.725,130.286 39.225,130.237 39.145 C 130.187 39.065,130.223 39.000,130.316 39.000 C 130.409 39.000,130.534 38.737,130.594 38.417 C 130.655 38.096,130.755 37.833,130.818 37.833 C 131.013 37.833,131.361 36.681,131.234 36.459 C 131.167 36.344,131.176 36.307,131.253 36.377 C 131.329 36.446,131.649 35.884,131.963 35.127 C 132.276 34.369,132.590 33.712,132.660 33.667 C 132.866 33.531,133.353 32.500,133.213 32.497 C 133.142 32.496,133.162 32.440,133.258 32.372 C 133.480 32.217,134.500 30.547,134.500 30.339 C 134.500 30.253,134.606 30.123,134.734 30.050 C 134.863 29.977,135.244 29.507,135.580 29.006 C 135.916 28.506,136.448 27.812,136.762 27.464 C 137.076 27.117,137.333 26.769,137.333 26.693 C 137.333 26.483,141.844 21.994,142.633 21.417 C 143.010 21.142,143.322 20.842,143.327 20.750 C 143.332 20.658,143.650 20.404,144.033 20.185 C 144.753 19.774,144.963 19.624,145.512 19.125 C 145.689 18.965,145.874 18.833,145.923 18.833 C 145.973 18.833,146.235 18.683,146.507 18.500 C 146.778 18.317,147.222 18.017,147.493 17.833 C 147.765 17.650,148.070 17.500,148.171 17.500 C 148.273 17.500,148.594 17.319,148.886 17.098 C 149.178 16.876,150.204 16.373,151.167 15.980 C 152.129 15.587,152.954 15.219,153.000 15.164 C 153.186 14.940,156.942 13.910,158.250 13.725 C 160.870 13.355,164.141 13.362,165.995 13.742 M171.946 48.890 C 172.016 48.961,171.994 49.070,171.898 49.134 C 171.801 49.198,171.653 49.373,171.569 49.523 C 171.022 50.505,165.129 56.500,164.711 56.500 C 164.595 56.500,164.500 56.559,164.500 56.631 C 164.500 56.786,162.905 58.000,162.701 58.000 C 162.623 58.000,162.253 58.262,161.879 58.583 C 161.504 58.904,161.155 59.167,161.105 59.167 C 161.054 59.167,160.203 59.605,159.215 60.141 C 158.226 60.677,156.817 61.322,156.083 61.575 C 155.350 61.829,154.637 62.077,154.500 62.126 C 154.362 62.176,154.141 62.239,154.007 62.265 C 153.874 62.292,153.611 62.392,153.424 62.487 C 152.490 62.963,149.684 62.959,149.333 62.483 C 149.093 62.155,141.254 61.550,141.372 61.868 C 141.416 61.986,141.580 62.496,141.738 63.000 C 141.895 63.504,142.092 64.067,142.176 64.250 C 143.153 66.397,143.022 71.829,141.908 75.264 C 141.592 76.240,141.333 77.078,141.333 77.127 C 141.333 77.391,148.670 76.683,149.296 76.358 C 149.454 76.276,149.752 76.237,149.958 76.270 C 150.165 76.304,150.333 76.259,150.333 76.171 C 150.333 76.083,150.447 76.054,150.585 76.107 C 150.724 76.160,150.952 76.109,151.091 75.993 C 151.400 75.737,152.340 75.741,152.500 76.000 C 152.563 76.103,152.889 76.201,153.224 76.218 C 153.558 76.236,153.832 76.299,153.833 76.358 C 153.833 76.480,155.469 76.925,155.792 76.892 C 155.906 76.880,156.000 76.937,156.000 77.019 C 156.000 77.100,156.073 77.167,156.162 77.167 C 156.251 77.167,156.740 77.351,157.249 77.576 C 157.757 77.801,158.220 77.982,158.276 77.978 C 158.333 77.974,158.425 78.036,158.481 78.114 C 158.537 78.192,159.198 78.574,159.950 78.961 C 160.701 79.349,161.517 79.853,161.762 80.080 C 162.008 80.308,162.266 80.458,162.337 80.415 C 162.407 80.371,162.508 80.447,162.561 80.584 C 162.613 80.721,162.754 80.833,162.874 80.833 C 162.994 80.833,163.353 81.071,163.671 81.362 C 163.990 81.653,164.550 82.108,164.917 82.374 C 166.826 83.757,171.734 88.988,171.418 89.304 C 171.245 89.478,160.794 89.437,160.417 89.262 C 160.233 89.177,159.971 89.091,159.833 89.071 C 159.218 88.982,158.314 88.796,157.027 88.493 C 156.262 88.313,155.568 88.208,155.485 88.259 C 155.402 88.311,155.333 88.291,155.333 88.216 C 155.333 88.141,154.846 87.940,154.250 87.769 C 153.654 87.598,153.167 87.408,153.167 87.346 C 153.167 87.284,152.885 87.135,152.542 87.014 C 151.528 86.657,149.000 85.461,149.000 85.339 C 149.000 85.277,148.644 85.050,148.208 84.835 C 147.773 84.620,147.379 84.400,147.333 84.347 C 147.287 84.294,146.500 83.690,145.583 83.006 C 144.667 82.322,143.194 81.031,142.310 80.137 C 140.467 78.272,140.857 78.219,139.328 80.540 C 138.414 81.927,136.170 84.276,135.083 84.983 C 134.717 85.221,134.267 85.553,134.083 85.720 C 131.267 88.282,122.992 89.607,118.087 88.282 C 116.397 87.826,112.943 86.274,112.385 85.721 C 112.216 85.553,111.854 85.273,111.581 85.098 C 109.998 84.083,107.427 81.301,106.580 79.689 C 105.727 78.065,105.870 78.052,104.027 79.923 C 103.128 80.836,102.123 81.788,101.794 82.039 C 101.465 82.290,101.095 82.592,100.973 82.711 C 100.850 82.830,100.487 83.109,100.167 83.331 C 99.846 83.553,99.546 83.783,99.500 83.842 C 99.454 83.901,98.967 84.196,98.417 84.496 C 97.867 84.796,97.262 85.182,97.073 85.354 C 96.883 85.526,96.635 85.667,96.521 85.667 C 96.407 85.667,96.367 85.753,96.433 85.859 C 96.506 85.978,96.478 86.006,96.359 85.933 C 96.253 85.867,95.736 86.040,95.208 86.317 C 94.681 86.593,94.044 86.868,93.792 86.928 C 93.540 86.987,93.333 87.107,93.333 87.195 C 93.333 87.282,93.265 87.311,93.181 87.259 C 93.097 87.207,93.003 87.224,92.973 87.297 C 92.907 87.453,90.198 88.296,89.295 88.442 C 88.953 88.497,88.702 88.589,88.736 88.646 C 88.771 88.703,88.469 88.759,88.067 88.771 C 87.664 88.782,87.241 88.863,87.126 88.950 C 87.011 89.037,86.710 89.088,86.458 89.064 C 86.206 89.040,85.824 89.111,85.609 89.222 C 84.873 89.604,74.833 89.568,74.833 89.183 C 74.833 88.863,81.050 82.867,81.605 82.651 C 81.777 82.585,82.251 82.224,82.660 81.849 C 83.068 81.474,83.537 81.124,83.701 81.072 C 83.866 81.020,84.000 80.908,84.000 80.822 C 84.000 80.737,84.061 80.685,84.135 80.708 C 84.209 80.731,84.772 80.426,85.385 80.031 C 85.999 79.635,87.082 79.044,87.792 78.717 C 88.502 78.390,89.121 78.070,89.167 78.005 C 89.293 77.827,91.401 77.061,93.083 76.581 C 93.908 76.346,94.714 76.081,94.873 75.993 C 95.266 75.776,96.287 75.791,96.427 76.016 C 96.489 76.116,96.754 76.167,97.016 76.129 C 97.278 76.090,97.512 76.114,97.538 76.182 C 97.594 76.332,100.574 76.768,103.150 77.004 C 104.195 77.099,105.102 77.210,105.166 77.250 C 105.231 77.290,105.112 76.818,104.902 76.203 C 103.867 73.158,103.801 72.822,103.712 70.167 C 103.628 67.618,103.835 65.265,104.175 64.925 C 104.262 64.838,104.335 64.613,104.337 64.425 C 104.339 64.237,104.545 63.482,104.795 62.746 L 105.250 61.409 103.750 61.533 C 101.850 61.690,98.476 62.161,98.253 62.300 C 98.160 62.359,97.915 62.385,97.708 62.358 C 97.502 62.331,97.333 62.383,97.333 62.472 C 97.333 62.937,95.080 62.949,94.030 62.490 C 93.633 62.316,93.258 62.185,93.196 62.198 C 93.134 62.210,92.872 62.133,92.614 62.027 C 92.356 61.920,92.015 61.833,91.856 61.833 C 91.697 61.833,91.495 61.770,91.408 61.693 C 91.321 61.615,90.763 61.376,90.167 61.161 C 89.571 60.947,89.046 60.720,89.000 60.658 C 88.804 60.391,87.471 59.831,87.286 59.937 C 87.175 60.001,87.135 59.996,87.199 59.925 C 87.262 59.855,86.969 59.613,86.546 59.388 C 86.124 59.164,85.227 58.610,84.553 58.157 C 83.878 57.704,83.263 57.333,83.184 57.333 C 83.105 57.333,82.938 57.209,82.812 57.058 C 82.687 56.906,82.171 56.482,81.667 56.115 C 79.991 54.894,74.667 49.653,74.667 49.224 C 74.667 49.101,74.573 48.991,74.458 48.981 C 74.344 48.970,74.550 48.900,74.917 48.824 C 76.834 48.427,85.702 48.817,86.680 49.341 C 86.860 49.437,87.080 49.470,87.170 49.415 C 87.260 49.359,87.427 49.373,87.542 49.446 C 87.853 49.645,90.726 50.317,90.873 50.226 C 90.943 50.182,91.000 50.218,91.000 50.304 C 91.000 50.390,91.356 50.547,91.792 50.652 C 92.227 50.758,93.071 51.076,93.667 51.359 C 94.263 51.642,94.938 51.951,95.167 52.044 C 95.929 52.354,97.235 53.057,98.554 53.866 C 99.271 54.307,99.917 54.667,99.990 54.667 C 100.062 54.667,100.300 54.842,100.519 55.057 C 100.738 55.272,101.292 55.703,101.750 56.016 C 102.598 56.594,103.316 57.224,104.913 58.792 C 106.010 59.868,106.134 59.872,106.712 58.844 C 109.155 54.493,114.854 50.773,120.250 50.006 C 123.483 49.546,130.165 50.312,130.472 51.177 C 130.503 51.263,130.619 51.333,130.731 51.333 C 131.025 51.333,133.553 52.577,133.840 52.863 C 133.974 52.996,134.496 53.369,135.001 53.691 C 136.217 54.468,138.862 57.299,139.688 58.708 C 140.270 59.700,140.585 60.106,140.458 59.700 C 140.414 59.557,141.737 58.229,143.148 57.000 C 143.621 56.587,144.114 56.156,144.242 56.042 C 144.371 55.927,144.544 55.833,144.627 55.833 C 144.710 55.833,144.997 55.610,145.264 55.338 C 145.531 55.066,145.805 54.841,145.872 54.838 C 145.939 54.835,146.404 54.571,146.905 54.250 C 147.407 53.929,147.870 53.667,147.935 53.667 C 147.999 53.667,148.288 53.487,148.576 53.267 C 148.991 52.951,151.104 51.860,151.500 51.759 C 152.301 51.553,152.500 51.467,152.500 51.330 C 152.500 51.240,152.612 51.167,152.750 51.167 C 152.887 51.167,153.000 51.087,153.000 50.990 C 153.000 50.893,153.063 50.853,153.140 50.900 C 153.276 50.984,155.498 50.340,155.667 50.168 C 155.712 50.122,155.825 50.081,155.917 50.078 C 156.260 50.066,157.589 49.791,157.742 49.700 C 157.883 49.616,158.159 49.568,159.000 49.481 C 159.137 49.466,159.327 49.394,159.421 49.321 C 159.515 49.247,160.678 49.063,162.005 48.911 C 163.331 48.759,164.429 48.624,164.444 48.609 C 164.544 48.515,171.844 48.788,171.946 48.890 M62.387 52.709 C 62.495 52.825,62.874 53.350,63.229 53.876 C 63.584 54.403,63.940 54.833,64.020 54.833 C 64.101 54.833,64.167 54.940,64.167 55.069 C 64.167 55.199,64.226 55.331,64.299 55.361 C 64.371 55.392,64.877 55.979,65.422 56.667 C 67.590 59.402,73.707 65.228,76.394 67.117 C 76.682 67.319,76.992 67.544,77.083 67.617 C 77.175 67.690,77.456 67.856,77.708 67.986 C 77.960 68.117,78.167 68.284,78.167 68.358 C 78.167 68.432,78.540 68.706,78.996 68.967 L 79.825 69.440 78.871 70.099 C 78.346 70.461,77.699 70.868,77.432 71.004 C 77.165 71.139,76.745 71.438,76.498 71.667 C 76.251 71.896,75.633 72.368,75.126 72.716 C 74.618 73.064,73.782 73.744,73.266 74.228 C 72.751 74.711,72.305 75.083,72.276 75.054 C 72.163 74.941,66.608 80.580,65.662 81.767 C 65.435 82.051,64.819 82.816,64.292 83.467 C 63.765 84.117,63.333 84.694,63.333 84.748 C 63.333 84.803,63.256 84.938,63.161 85.049 C 63.066 85.159,62.886 85.399,62.760 85.581 C 62.535 85.906,62.517 85.902,61.807 85.413 C 61.409 85.139,60.649 84.690,60.117 84.416 C 59.586 84.141,58.990 83.767,58.794 83.583 C 58.085 82.922,57.447 82.513,57.283 82.615 C 57.188 82.673,57.167 82.635,57.234 82.526 C 57.299 82.420,57.285 82.333,57.202 82.333 C 56.977 82.333,54.762 80.028,54.159 79.167 C 53.870 78.754,53.510 78.301,53.359 78.160 C 52.985 77.812,51.931 75.628,51.591 74.500 C 51.440 73.996,51.249 73.461,51.169 73.311 C 50.603 72.264,50.446 67.557,50.916 65.750 C 51.226 64.555,51.230 64.543,51.474 63.947 C 51.580 63.689,51.667 63.421,51.667 63.352 C 51.667 62.573,54.100 58.804,55.552 57.333 C 58.175 54.678,61.881 52.170,62.387 52.709 M184.631 52.790 C 184.880 52.950,185.158 53.141,185.250 53.214 C 185.342 53.287,185.979 53.702,186.667 54.137 C 187.354 54.571,188.174 55.150,188.488 55.422 C 189.621 56.404,191.619 58.432,191.815 58.800 C 191.927 59.008,192.099 59.125,192.201 59.062 C 192.302 59.000,192.339 59.023,192.283 59.113 C 192.198 59.251,192.838 60.392,193.154 60.667 C 193.269 60.766,193.848 61.955,194.295 63.006 C 194.472 63.422,194.712 64.172,194.830 64.673 C 194.947 65.173,195.128 65.689,195.230 65.817 C 195.474 66.123,195.490 72.128,195.247 72.298 C 195.029 72.451,194.632 73.975,194.757 74.178 C 194.810 74.264,194.788 74.333,194.709 74.333 C 194.630 74.333,194.428 74.727,194.260 75.208 C 193.911 76.206,193.330 77.358,193.083 77.539 C 192.992 77.606,192.973 77.663,193.042 77.664 C 193.110 77.666,193.035 77.809,192.875 77.983 C 192.715 78.157,192.396 78.580,192.167 78.923 C 191.938 79.266,191.471 79.809,191.130 80.130 C 190.788 80.451,190.556 80.789,190.614 80.882 C 190.671 80.975,190.638 81.002,190.539 80.941 C 190.441 80.880,190.197 81.037,189.998 81.290 C 189.487 81.940,187.427 83.556,186.284 84.203 C 185.753 84.504,184.971 84.972,184.546 85.244 C 184.026 85.576,183.752 85.671,183.706 85.535 C 183.631 85.310,182.182 83.299,182.000 83.167 C 181.937 83.121,181.559 82.596,181.161 82.000 C 180.764 81.404,180.300 80.780,180.131 80.614 C 179.962 80.447,179.627 79.997,179.387 79.614 C 178.958 78.929,178.167 77.909,178.167 78.042 C 178.167 78.079,177.398 77.370,176.458 76.466 C 175.519 75.562,174.563 74.720,174.333 74.594 C 174.104 74.468,173.759 74.189,173.566 73.974 C 173.373 73.759,173.007 73.433,172.753 73.250 C 172.499 73.067,171.907 72.637,171.437 72.295 C 170.968 71.953,170.045 71.298,169.386 70.839 C 168.728 70.381,168.142 69.928,168.083 69.833 C 168.025 69.739,167.915 69.700,167.839 69.746 C 167.764 69.793,167.659 69.719,167.606 69.582 C 167.553 69.445,167.391 69.333,167.245 69.333 C 167.100 69.333,167.027 69.257,167.085 69.164 C 167.143 69.071,167.246 69.029,167.315 69.072 C 167.384 69.115,167.735 68.892,168.095 68.578 C 168.455 68.264,168.814 68.005,168.893 68.003 C 169.443 67.991,182.070 55.572,183.131 54.000 C 183.472 53.496,183.862 52.984,184.000 52.863 C 184.183 52.701,184.187 52.674,184.016 52.763 C 183.862 52.843,183.823 52.819,183.901 52.692 C 184.056 52.442,184.096 52.447,184.631 52.790 M115.359 88.744 C 115.344 89.160,115.400 89.631,115.485 89.792 C 115.570 89.952,115.727 90.833,115.834 91.750 C 115.941 92.667,116.212 94.348,116.437 95.486 L 116.845 97.555 116.398 99.319 C 116.152 100.289,115.783 101.458,115.577 101.917 C 114.990 103.225,114.516 104.394,114.464 104.660 C 114.438 104.794,114.358 104.982,114.286 105.077 C 113.917 105.565,112.333 108.177,112.333 108.297 C 112.333 108.374,112.122 108.657,111.863 108.927 C 111.605 109.196,111.163 109.754,110.882 110.167 C 110.363 110.926,108.963 112.547,108.125 113.357 C 107.873 113.601,107.667 113.848,107.667 113.905 C 107.667 113.963,107.387 114.252,107.046 114.547 C 106.704 114.842,106.007 115.458,105.497 115.917 C 104.012 117.250,103.101 117.990,102.137 118.644 C 101.641 118.981,101.056 119.423,100.837 119.628 C 100.617 119.833,100.373 120.000,100.295 120.000 C 100.121 120.000,99.105 120.702,99.027 120.876 C 98.997 120.945,98.912 120.965,98.839 120.920 C 98.766 120.875,98.422 121.031,98.076 121.266 C 97.342 121.764,94.500 123.190,94.500 123.061 C 94.500 123.012,94.256 123.120,93.958 123.299 C 92.891 123.942,89.660 124.842,87.539 125.086 C 86.965 125.152,86.454 125.272,86.405 125.353 C 86.252 125.600,82.455 125.523,81.305 125.249 C 78.397 124.558,76.000 123.742,75.667 123.330 C 75.621 123.274,75.133 122.950,74.583 122.611 C 73.467 121.922,70.500 119.117,70.500 118.750 C 70.500 118.704,70.347 118.514,70.160 118.327 C 69.973 118.140,69.748 117.798,69.660 117.567 C 69.563 117.312,69.425 117.193,69.308 117.266 C 69.191 117.338,69.160 117.312,69.230 117.199 C 69.294 117.096,69.141 116.616,68.891 116.131 C 68.641 115.647,68.412 115.106,68.382 114.930 C 68.351 114.754,68.252 114.519,68.161 114.409 C 67.555 113.680,66.794 105.167,67.334 105.167 C 67.385 105.167,67.523 104.551,67.642 103.798 C 67.760 103.045,67.994 102.127,68.161 101.756 C 68.328 101.386,68.493 100.933,68.529 100.750 C 68.595 100.405,70.654 100.333,71.083 100.661 C 71.175 100.731,71.362 100.791,71.500 100.795 C 71.637 100.798,73.027 100.993,74.587 101.226 C 77.420 101.650,77.950 101.667,82.167 101.462 C 85.642 101.294,88.833 100.904,88.833 100.647 C 88.833 100.566,89.055 100.500,89.325 100.500 C 90.500 100.500,95.566 99.368,96.747 98.841 C 97.115 98.677,97.829 98.411,98.333 98.251 C 99.484 97.885,101.722 96.979,101.833 96.833 C 101.879 96.773,102.665 96.369,103.580 95.935 C 104.494 95.501,105.282 95.090,105.330 95.022 C 105.378 94.953,105.919 94.619,106.533 94.278 C 107.147 93.938,107.750 93.568,107.874 93.455 C 107.997 93.342,108.219 93.175,108.367 93.083 C 109.580 92.332,110.740 91.430,110.694 91.273 C 110.664 91.169,110.693 91.138,110.760 91.205 C 110.870 91.314,111.440 90.908,112.455 89.995 C 112.660 89.811,112.869 89.664,112.919 89.669 C 113.012 89.677,113.601 89.165,114.558 88.244 C 115.198 87.628,115.397 87.752,115.359 88.744 M132.438 89.351 C 133.205 90.003,134.093 90.668,134.410 90.830 C 134.727 90.992,134.945 91.167,134.893 91.219 C 134.841 91.270,135.325 91.651,135.970 92.064 C 136.614 92.477,137.296 92.947,137.485 93.109 C 137.674 93.271,138.336 93.673,138.956 94.003 C 139.576 94.333,140.271 94.708,140.500 94.837 C 140.729 94.965,140.973 95.055,141.042 95.035 C 141.110 95.016,141.167 95.073,141.167 95.162 C 141.167 95.314,143.221 96.338,144.039 96.594 C 144.247 96.659,144.460 96.779,144.513 96.860 C 144.637 97.053,149.250 98.667,149.676 98.667 C 149.854 98.667,150.000 98.734,150.000 98.817 C 150.000 98.993,153.667 99.889,154.458 99.905 C 154.755 99.912,154.999 99.962,155.000 100.017 C 155.002 100.484,176.598 100.728,177.542 100.272 C 177.757 100.168,177.833 100.201,177.833 100.399 C 177.833 100.546,177.908 100.667,178.000 100.667 C 178.092 100.667,178.167 100.817,178.167 101.000 C 178.167 101.183,178.233 101.333,178.315 101.333 C 178.396 101.333,178.456 101.427,178.447 101.542 C 178.417 101.924,178.703 103.333,178.811 103.333 C 178.869 103.333,178.924 103.540,178.932 103.792 C 178.940 104.044,179.041 104.962,179.155 105.833 C 179.388 107.610,179.391 109.538,179.164 110.934 C 179.080 111.448,179.021 111.917,179.033 111.976 C 179.084 112.232,178.189 115.190,178.017 115.333 C 177.962 115.379,177.628 116.002,177.275 116.718 C 176.922 117.433,176.359 118.337,176.025 118.725 C 175.690 119.113,175.229 119.709,175.000 120.048 C 174.771 120.387,174.508 120.667,174.417 120.670 C 174.325 120.673,174.025 120.908,173.750 121.191 C 173.475 121.474,172.725 122.050,172.083 122.471 C 171.442 122.892,170.878 123.290,170.832 123.355 C 170.591 123.691,166.514 125.000,165.710 125.000 C 165.503 125.000,165.333 125.056,165.333 125.125 C 165.333 125.194,165.052 125.266,164.708 125.286 C 164.365 125.306,163.380 125.370,162.521 125.429 C 161.401 125.505,160.848 125.475,160.565 125.323 C 160.258 125.159,160.074 125.155,159.741 125.307 C 159.505 125.415,159.355 125.433,159.408 125.348 C 159.506 125.189,159.323 125.138,157.531 124.830 C 156.158 124.593,153.453 123.809,152.492 123.369 C 152.076 123.179,151.626 122.999,151.492 122.970 C 151.359 122.941,151.211 122.865,151.163 122.802 C 151.115 122.739,150.572 122.461,149.956 122.184 C 149.339 121.908,148.741 121.599,148.626 121.499 C 148.511 121.398,147.813 120.963,147.076 120.533 C 146.338 120.102,145.401 119.479,144.993 119.147 C 144.584 118.816,144.161 118.516,144.051 118.481 C 143.519 118.309,138.075 113.052,137.342 112.000 C 137.118 111.679,136.687 111.178,136.384 110.886 C 136.081 110.594,135.833 110.278,135.833 110.183 C 135.833 109.947,134.802 108.500,134.635 108.500 C 134.561 108.500,134.500 108.436,134.500 108.357 C 134.500 108.213,132.919 105.398,132.656 105.074 C 132.577 104.977,132.170 104.044,131.750 103.000 C 131.330 101.956,130.928 101.023,130.855 100.926 C 130.782 100.829,130.554 100.150,130.349 99.417 C 130.143 98.683,129.931 97.971,129.878 97.833 C 129.824 97.696,129.792 97.529,129.806 97.462 C 129.819 97.396,129.861 96.983,129.898 96.546 C 129.936 96.108,130.009 95.638,130.061 95.500 C 130.207 95.115,130.666 90.857,130.666 89.885 C 130.667 89.409,130.748 88.969,130.848 88.908 C 130.948 88.846,130.992 88.654,130.947 88.481 C 130.823 88.008,130.927 88.068,132.438 89.351 " stroke="none" fill="#04949c" fill-rule="evenodd"></path><path id="path4" d="M122.034 49.957 C 122.649 49.989,123.699 49.989,124.368 49.957 C 125.036 49.926,124.533 49.899,123.250 49.899 C 121.967 49.899,121.420 49.925,122.034 49.957 M119.417 50.113 C 117.704 50.494,116.331 50.910,115.917 51.175 C 115.276 51.584,115.374 51.580,116.500 51.149 C 117.004 50.957,118.167 50.624,119.083 50.411 C 120.000 50.198,120.525 50.027,120.250 50.031 C 119.975 50.035,119.600 50.072,119.417 50.113 M127.417 50.415 C 128.333 50.630,129.402 50.922,129.792 51.063 C 130.181 51.203,130.500 51.258,130.500 51.184 C 130.500 50.948,126.987 50.001,126.167 50.016 C 125.938 50.020,126.500 50.200,127.417 50.415 M113.833 52.177 C 111.043 53.652,108.365 56.132,106.822 58.670 C 106.517 59.172,106.188 59.638,106.092 59.706 C 105.978 59.785,105.976 59.829,106.086 59.831 C 106.179 59.832,106.656 59.234,107.145 58.501 C 108.817 55.999,111.107 53.918,113.932 52.333 C 115.694 51.345,115.622 51.232,113.833 52.177 M131.945 51.981 C 132.418 52.242,133.075 52.622,133.403 52.825 C 133.731 53.028,134.000 53.121,134.000 53.032 C 134.000 52.943,133.407 52.562,132.683 52.185 C 131.195 51.411,130.625 51.253,131.945 51.981 M135.417 54.187 C 136.764 55.335,138.133 56.825,139.113 58.208 C 140.195 59.735,140.348 59.846,139.616 58.571 C 138.983 57.468,135.945 54.212,135.145 53.780 C 134.686 53.531,134.735 53.605,135.417 54.187 M104.862 62.493 C 104.374 63.939,104.417 64.184,104.922 62.833 C 105.145 62.237,105.304 61.676,105.276 61.586 C 105.247 61.495,105.061 61.904,104.862 62.493 M141.262 62.000 C 141.324 62.229,141.443 62.529,141.528 62.667 C 141.635 62.840,141.649 62.790,141.571 62.500 C 141.510 62.271,141.390 61.971,141.305 61.833 C 141.198 61.660,141.185 61.710,141.262 62.000 M142.064 64.500 C 142.850 67.504,142.798 71.087,141.913 74.833 C 141.848 75.110,141.904 75.057,142.080 74.676 C 143.009 72.660,143.043 65.141,142.126 64.250 C 142.009 64.136,141.989 64.216,142.064 64.500 M104.105 64.964 C 103.634 65.726,103.555 71.924,103.998 73.391 C 104.304 74.405,104.330 74.040,104.073 72.331 C 103.782 70.393,103.781 68.211,104.069 66.333 C 104.284 64.936,104.291 64.664,104.105 64.964 M104.509 74.926 C 104.494 75.219,105.220 77.258,105.276 77.081 C 105.304 76.991,105.145 76.429,104.922 75.833 C 104.700 75.237,104.513 74.829,104.509 74.926 M141.350 76.433 C 141.232 76.759,141.173 77.062,141.218 77.107 C 141.263 77.152,141.390 76.916,141.500 76.583 C 141.760 75.794,141.629 75.662,141.350 76.433 M105.818 78.471 C 105.919 78.660,106.084 78.865,106.184 78.927 C 106.315 79.008,106.314 78.943,106.182 78.696 C 106.081 78.507,105.916 78.301,105.816 78.239 C 105.685 78.158,105.686 78.224,105.818 78.471 M139.950 79.238 C 138.943 81.039,137.346 82.871,135.167 84.725 C 134.521 85.275,134.494 85.321,134.971 85.057 C 135.890 84.549,138.406 81.939,139.316 80.551 C 139.785 79.836,140.228 79.175,140.300 79.083 C 140.598 78.705,140.677 78.500,140.524 78.500 C 140.435 78.500,140.176 78.832,139.950 79.238 M106.658 79.774 C 107.362 81.243,110.117 84.208,111.583 85.074 C 111.959 85.296,111.918 85.231,111.417 84.812 C 109.504 83.212,108.379 81.965,106.622 79.497 C 106.382 79.161,106.389 79.213,106.658 79.774 M112.203 85.536 C 112.421 86.217,117.605 88.340,119.591 88.561 C 120.045 88.612,120.267 88.614,120.083 88.566 C 119.900 88.519,119.150 88.329,118.417 88.145 C 116.609 87.691,114.841 86.964,113.365 86.068 C 112.688 85.657,112.166 85.418,112.203 85.536 M132.925 86.182 C 131.440 87.098,131.379 87.265,132.810 86.493 C 133.883 85.915,134.424 85.535,134.321 85.433 C 134.282 85.395,133.654 85.732,132.925 86.182 M130.990 87.162 C 130.582 87.401,128.259 88.155,127.118 88.419 C 126.145 88.644,126.133 88.653,126.909 88.564 C 128.048 88.434,130.478 87.713,131.083 87.325 C 131.576 87.010,131.495 86.867,130.990 87.162 M120.960 88.785 C 121.168 88.824,121.468 88.823,121.627 88.781 C 121.786 88.739,121.617 88.707,121.250 88.709 C 120.883 88.711,120.753 88.745,120.960 88.785 M124.792 88.784 C 124.998 88.824,125.335 88.824,125.542 88.784 C 125.748 88.745,125.579 88.712,125.167 88.712 C 124.754 88.712,124.585 88.745,124.792 88.784 " stroke="none" fill="#049c9d" fill-rule="evenodd"></path></g></svg>